<svg width="432" height="75" viewBox="0 0 432 75" fill="none" xmlns="http://www.w3.org/2000/svg">
<path d="M269.918 34.1421C264.782 34.1421 255.755 32.2117 255.755 23.1526H263.322C263.322 24.304 264.342 26.7411 270.528 26.7411C272.366 26.7411 275.772 26.679 276.441 24.4453C277.499 20.912 271.513 20.7499 269.481 20.45L269.339 20.4294C264.761 19.7193 255.825 18.3956 255.825 9.9604C255.825 6.48913 257.312 4.33466 258.561 3.13506C260.922 0.866838 264.959 -0.153516 270.05 0.0222882C274.548 0.173962 278.345 1.40114 280.526 3.66592C282.229 5.43085 283.124 8.34713 283.124 11.0118H275.557C275.557 10.1328 275.144 7.72665 269.79 7.5405C268.142 7.4888 264.463 7.41641 263.967 9.59845C263.322 12.4354 268.704 12.7905 270.431 12.9904C274.274 13.4386 284.618 14.6588 284.618 23.7283C284.618 27.4443 282.905 29.716 281.469 30.9638C279.014 33.0976 274.964 34.1386 269.918 34.1386H269.914L269.918 34.1421Z" fill="white"/>
<path d="M169.274 0.000976562C159.033 0.000976562 151.771 7.23997 151.771 17.0678C151.771 26.8956 159.033 34.1346 169.274 34.1346C179.514 34.1346 186.776 26.8921 186.776 17.0678C186.776 7.24342 179.514 0.000976562 169.274 0.000976562ZM169.274 25.5788C164.446 25.5788 161.114 22.1006 161.114 17.0678C161.114 12.0349 164.446 8.55678 169.274 8.55678C174.101 8.55678 177.433 12.0349 177.433 17.0678C177.433 22.1006 174.101 25.5788 169.274 25.5788Z" fill="white"/>
<path d="M210.882 0.602051V19.8612C210.882 23.6496 208.7 25.6007 205.222 25.6007C201.744 25.6007 199.563 23.6496 199.563 19.8612V0.602051H190.539V20.1198C190.539 29.0858 195.703 34.1738 205.222 34.1738C214.741 34.1738 219.905 29.0858 219.905 20.1198V0.602051H210.882Z" fill="white"/>
<path d="M224.149 0.595703V8.83782H233.575V33.5504H242.574V8.83437H252V0.595703H224.149Z" fill="white"/>
<path d="M368.534 8.55171V0.595703H342.629V33.5504H368.534V25.5978H351.628V20.8649H367.355V12.9054H351.628V8.55171H368.534Z" fill="white"/>
<path d="M391.888 21.4509C396.209 20.4271 399.281 16.6456 399.281 11.5645C399.281 4.92531 394.853 0.595703 386.422 0.595703H372.828V33.5504H381.831V21.8542H382.327L390.899 33.5504H401.508L391.891 21.4544L391.888 21.4509ZM386.915 14.4842H381.827V8.6241H386.915C389.141 8.6241 390.778 9.56517 390.778 11.5645C390.778 13.5639 389.145 14.4842 386.915 14.4842Z" fill="white"/>
<path d="M288.923 8.8125V33.5492H297.922V8.8125H288.923Z" fill="white"/>
<path d="M320.796 0.588379H315.16V8.80636H320.56C326.004 8.80636 328.633 12.2432 328.633 17.0692C328.633 21.8952 326.004 25.332 320.56 25.332H315.16V8.80636H306.196L306.161 33.5431H320.792C331.165 33.5431 337.986 27.0004 337.986 17.0692C337.986 7.13795 331.168 0.588379 320.796 0.588379Z" fill="white"/>
<path d="M306.192 0.588379H297.918V8.81326H306.192V0.588379Z" fill="white"/>
<path d="M417.3 34.1426C412.164 34.1426 403.137 32.2122 403.137 23.1531H410.704C410.704 24.3045 411.723 26.7416 417.91 26.7416C419.748 26.7416 423.153 26.6795 423.823 24.4458C424.88 20.9125 418.895 20.7505 416.863 20.4506L416.721 20.4299C412.143 19.7198 403.206 18.3961 403.206 9.96091C403.206 6.48964 404.694 4.33518 405.942 3.13557C408.304 0.863907 412.341 -0.156447 417.431 0.0193572C421.929 0.171031 425.727 1.39821 427.908 3.66298C429.611 5.42792 430.505 8.3442 430.505 11.0088H422.938C422.938 10.1298 422.526 7.72372 417.171 7.53757C415.524 7.48586 411.845 7.41347 411.349 9.59551C410.704 12.4325 416.086 12.7876 417.813 12.9875C421.655 13.4356 432 14.6559 432 23.7253C432 27.4414 430.287 29.713 428.851 30.9609C426.396 33.0947 422.345 34.1357 417.3 34.1357H417.296L417.3 34.1426Z" fill="white"/>
<path d="M269.954 40.3819C280.361 40.3819 287.199 46.9452 287.199 56.9109C287.199 66.8766 280.357 73.4399 269.954 73.4399H255.274V40.3784H269.954V40.3819ZM269.714 48.624H264.298V65.2013H269.714C275.18 65.2013 277.815 61.6817 277.815 56.9144C277.815 52.147 275.18 48.624 269.714 48.624Z" fill="white"/>
<path d="M251.049 40.3818V73.4434H242.258L228.55 54.8598V73.4434H219.523V40.3818H228.314L242.022 58.9654V40.3818H251.049Z" fill="white"/>
<path d="M215.452 40.3818V59.9581C215.452 68.9552 210.275 74.057 200.724 74.057C191.174 74.057 185.996 68.9552 185.996 59.9581V40.3818H195.047V59.6996C195.047 63.5018 197.232 65.4632 200.724 65.4632C204.216 65.4632 206.401 63.5018 206.401 59.6996V40.3818H215.452Z" fill="white"/>
<path d="M180.579 53.4396V61.4198H165.043V73.4399H156.016V40.3784H181.769V48.3585H165.043V53.4362H180.579V53.4396Z" fill="white"/>
<path d="M294.468 73.4394C297.528 73.4394 300.009 70.9732 300.009 67.9309C300.009 64.8886 297.528 62.4224 294.468 62.4224C291.407 62.4224 288.926 64.8886 288.926 67.9309C288.926 70.9732 291.407 73.4394 294.468 73.4394Z" fill="#3433CD"/>
<path d="M122.519 0.57666H98.034V24.9154H122.519V0.57666Z" fill="white"/>
<path d="M18.3673 73.4276C28.5113 73.4276 36.7346 65.2535 36.7346 55.1701C36.7346 45.0868 28.5113 36.9126 18.3673 36.9126C8.22332 36.9126 0 45.0868 0 55.1701C0 65.2535 8.22332 73.4276 18.3673 73.4276Z" fill="#3433CD"/>
<path d="M78.5101 24.9154C75.7934 24.9154 73.5492 22.6915 73.5492 19.9841V0.57666H49.0641V24.9154V73.5895H73.5492V54.182C73.5492 51.5368 75.7483 49.2507 78.5101 49.2507H98.0343V24.912H78.5101V24.9154Z" fill="white"/>
</svg>
